<svg width="22" height="22" viewBox="0 0 22 22" fill="none" xmlns="http://www.w3.org/2000/svg">
<g clip-path="url(#clip0_124_534)">
<path d="M6.41669 9.16669L11 3.66669L15.5834 9.16669" stroke="#9DACB4" stroke-width="2.0625" stroke-linecap="round" stroke-linejoin="round"/>
<path d="M19.25 9.16669L17.4167 16.5C17.331 17.0254 17.1006 17.4967 16.7656 17.8316C16.4306 18.1666 16.0122 18.3442 15.5833 18.3334H6.41667C5.98777 18.3442 5.56941 18.1666 5.23443 17.8316C4.89944 17.4967 4.66904 17.0254 4.58333 16.5L2.75 9.16669H19.25Z" fill="#9DACB4"/>
<path d="M11 15.5834C12.0125 15.5834 12.8334 14.7625 12.8334 13.75C12.8334 12.7375 12.0125 11.9167 11 11.9167C9.9875 11.9167 9.16669 12.7375 9.16669 13.75C9.16669 14.7625 9.9875 15.5834 11 15.5834Z" fill="#E7EDF0"/>
</g>
<defs>
<clipPath id="clip0_124_534">
<rect width="22" height="22" fill="white"/>
</clipPath>
</defs>
</svg>
