<svg width="22" height="22" viewBox="0 0 22 22" fill="none" xmlns="http://www.w3.org/2000/svg">
<g clip-path="url(#clip0_1_1081)">
<path d="M2.75 18.3333L3.94167 14.7583C2.91174 13.2351 2.53916 11.4312 2.8932 9.68211C3.24724 7.93301 4.30381 6.3577 5.86645 5.24908C7.4291 4.14047 9.39149 3.57399 11.3887 3.65497C13.386 3.73595 15.2822 4.45888 16.7248 5.68935C18.1675 6.91981 19.0583 8.57408 19.2317 10.3446C19.4052 12.1151 18.8494 13.8813 17.6677 15.3149C16.4861 16.7484 14.7589 17.7518 12.8075 18.1384C10.856 18.525 8.81302 18.2685 7.05833 17.4167L2.75 18.3333" stroke="#AEB9BE" stroke-width="2.0625" stroke-linecap="round" stroke-linejoin="round"/>
<path d="M11 11V11.0092" stroke="#AEB9BE" stroke-width="2.0625" stroke-linecap="round" stroke-linejoin="round"/>
<path d="M7.33333 11V11.0092" stroke="#AEB9BE" stroke-width="2.0625" stroke-linecap="round" stroke-linejoin="round"/>
<path d="M14.6667 11V11.0092" stroke="#AEB9BE" stroke-width="2.0625" stroke-linecap="round" stroke-linejoin="round"/>
</g>
<defs>
<clipPath id="clip0_1_1081">
<rect width="22" height="22" fill="white"/>
</clipPath>
</defs>
</svg>
