<svg width="27" height="27" viewBox="0 0 27 27" fill="none" xmlns="http://www.w3.org/2000/svg">
<g clip-path="url(#clip0_1_1129)">
<path d="M15.75 3.375V7.875C15.75 8.17337 15.8685 8.45952 16.0795 8.6705C16.2905 8.88147 16.5766 9 16.875 9H21.375" stroke="#AEB9BE" stroke-width="1.88372" stroke-linecap="round" stroke-linejoin="round"/>
<path d="M19.125 23.625H7.875C7.27826 23.625 6.70597 23.3879 6.28401 22.966C5.86205 22.544 5.625 21.9717 5.625 21.375V5.625C5.625 5.02826 5.86205 4.45597 6.28401 4.03401C6.70597 3.61205 7.27826 3.375 7.875 3.375H15.75L21.375 9V21.375C21.375 21.9717 21.1379 22.544 20.716 22.966C20.294 23.3879 19.7217 23.625 19.125 23.625Z" stroke="#AEB9BE" stroke-width="1.88372" stroke-linecap="round" stroke-linejoin="round"/>
<path d="M10.125 19.125V13.5" stroke="#AEB9BE" stroke-width="1.88372" stroke-linecap="round" stroke-linejoin="round"/>
<path d="M13.5 19.125V18" stroke="#AEB9BE" stroke-width="1.88372" stroke-linecap="round" stroke-linejoin="round"/>
<path d="M16.875 19.125V15.75" stroke="#AEB9BE" stroke-width="1.88372" stroke-linecap="round" stroke-linejoin="round"/>
</g>
<defs>
<clipPath id="clip0_1_1129">
<rect width="27" height="27" fill="white"/>
</clipPath>
</defs>
</svg>
