<svg width="27" height="27" viewBox="0 0 27 27" fill="none" xmlns="http://www.w3.org/2000/svg">
<g clip-path="url(#clip0_1_1075)">
<path d="M11.6156 4.85663C12.0949 2.88112 14.9051 2.88112 15.3844 4.85663C15.4563 5.1534 15.5972 5.429 15.7958 5.661C15.9944 5.893 16.2449 6.07484 16.527 6.19171C16.8091 6.30859 17.1148 6.35721 17.4193 6.3336C17.7237 6.31 18.0183 6.21484 18.279 6.05587C20.0149 4.99837 22.0028 6.98512 20.9453 8.72212C20.7865 8.98274 20.6915 9.27713 20.668 9.58137C20.6444 9.88561 20.693 10.1911 20.8097 10.4731C20.9265 10.755 21.1081 11.0054 21.3398 11.2039C21.5716 11.4025 21.8469 11.5435 22.1434 11.6156C24.1189 12.0949 24.1189 14.9051 22.1434 15.3844C21.8466 15.4563 21.571 15.5972 21.339 15.7958C21.107 15.9944 20.9252 16.2449 20.8083 16.527C20.6914 16.8091 20.6428 17.1148 20.6664 17.4193C20.69 17.7237 20.7852 18.0183 20.9441 18.279C22.0016 20.0149 20.0149 22.0028 18.2779 20.9453C18.0173 20.7865 17.7229 20.6915 17.4186 20.668C17.1144 20.6444 16.8089 20.693 16.5269 20.8097C16.245 20.9265 15.9946 21.1081 15.7961 21.3398C15.5975 21.5716 15.4565 21.8469 15.3844 22.1434C14.9051 24.1189 12.0949 24.1189 11.6156 22.1434C11.5437 21.8466 11.4028 21.571 11.2042 21.339C11.0056 21.107 10.7551 20.9252 10.473 20.8083C10.1909 20.6914 9.88519 20.6428 9.58074 20.6664C9.27629 20.69 8.98172 20.7852 8.721 20.9441C6.98512 22.0016 4.99725 20.0149 6.05475 18.2779C6.21349 18.0173 6.30849 17.7229 6.33204 17.4186C6.35559 17.1144 6.30702 16.8089 6.19028 16.5269C6.07354 16.245 5.89192 15.9946 5.66018 15.7961C5.42845 15.5975 5.15313 15.4565 4.85663 15.3844C2.88112 14.9051 2.88112 12.0949 4.85663 11.6156C5.1534 11.5437 5.429 11.4028 5.661 11.2042C5.893 11.0056 6.07484 10.7551 6.19171 10.473C6.30859 10.1909 6.35721 9.88519 6.3336 9.58074C6.31 9.27629 6.21484 8.98172 6.05587 8.721C4.99837 6.98512 6.98512 4.99725 8.72212 6.05475C9.84712 6.73875 11.3051 6.1335 11.6156 4.85663Z" stroke="#AEB9BE" stroke-width="2.38235" stroke-linecap="round" stroke-linejoin="round"/>
<path d="M13.5 16.875C15.364 16.875 16.875 15.364 16.875 13.5C16.875 11.636 15.364 10.125 13.5 10.125C11.636 10.125 10.125 11.636 10.125 13.5C10.125 15.364 11.636 16.875 13.5 16.875Z" stroke="#AEB9BE" stroke-width="2.38235" stroke-linecap="round" stroke-linejoin="round"/>
</g>
<defs>
<clipPath id="clip0_1_1075">
<rect width="27" height="27" fill="white"/>
</clipPath>
</defs>
</svg>
